<svg xmlns="http://www.w3.org/2000/svg" viewBox="0 0 512 512" width="512" height="512"><defs><linearGradient id="prismGradient" x1="0%" y1="0%" x2="100%" y2="100%"><stop offset="0%" style="stop-color:#df6277;stop-opacity:1"/><stop offset="20%" style="stop-color:#fb9168;stop-opacity:1"/><stop offset="40%" style="stop-color:#f3db6c;stop-opacity:1"/><stop offset="60%" style="stop-color:#7ab392;stop-opacity:1"/><stop offset="80%" style="stop-color:#4b7cbc;stop-opacity:1"/><stop offset="100%" style="stop-color:#6f488c;stop-opacity:1"/></linearGradient><linearGradient id="topFacet" x1="0%" y1="0%" x2="100%" y2="0%"><stop offset="0%" style="stop-color:#dfdfdf;stop-opacity:1"/><stop offset="100%" style="stop-color:#ffffff;stop-opacity:1"/></linearGradient><linearGradient id="rightFacet" x1="0%" y1="0%" x2="0%" y2="100%"><stop offset="0%" style="stop-color:#d6d2d2;stop-opacity:1"/><stop offset="100%" style="stop-color:#c0c0c0;stop-opacity:1"/></linearGradient><linearGradient id="leftFacet" x1="0%" y1="0%" x2="0%" y2="100%"><stop offset="0%" style="stop-color:#dfdfdf;stop-opacity:1"/><stop offset="100%" style="stop-color:#c8c8c8;stop-opacity:1"/></linearGradient></defs><polygon points="256,140 340,190 256,210 172,190" fill="url(#topFacet)"/><polygon points="340,190 340,310 256,360 256,210" fill="url(#rightFacet)"/><polygon points="172,190 256,210 256,360 172,310" fill="url(#leftFacet)"/><polygon points="256,140 340,190 340,310 256,360 172,310 172,190" fill="url(#prismGradient)" opacity="0.85"/><polyline points="256,140 340,190 340,310 256,360" fill="none" stroke="#ffffff" stroke-width="3" opacity="0.6" stroke-linecap="round" stroke-linejoin="round"/><polyline points="256,140 172,190 172,310 256,360" fill="none" stroke="#ffffff" stroke-width="2" opacity="0.4" stroke-linecap="round" stroke-linejoin="round"/><line x1="256" y1="140" x2="256" y2="360" stroke="#ffffff" stroke-width="4" opacity="0.5" stroke-linecap="round"/></svg>
